<svg width="195" height="195" viewBox="0 0 195 195" fill="none" xmlns="http://www.w3.org/2000/svg">
<path fill-rule="evenodd" clip-rule="evenodd" d="M98.4534 44.8091C97.0852 45.5832 95.8931 46.0274 95.4097 47.269C95.2747 47.6172 95.9309 47.896 96.3242 47.8551C97.8549 47.6919 97.9798 46.347 98.4534 44.8091ZM106.921 65.185C108.449 64.7283 109.223 63.9822 110.04 63.3243C110.298 63.1151 110.636 62.8179 110.363 62.4879C110.187 62.2736 109.772 62.1778 109.464 62.1828C107.708 62.2092 107.966 63.9155 106.921 65.185ZM107.19 45.2013C107.608 46.0038 107.938 46.6054 108.236 47.22C108.572 47.9115 109.143 47.9839 109.787 47.896C110.13 47.8499 110.538 47.7827 110.571 47.3824C110.626 46.7187 110.012 46.4715 109.609 46.1539C108.99 45.6688 108.397 45.0308 107.19 45.2013ZM99.0114 65.1236C98.3802 64.0522 97.9848 63.1978 97.421 62.4777C96.9127 61.8295 96.1062 62.008 95.6105 62.4565C94.9291 63.0763 95.7859 63.3807 96.0962 63.696C96.7949 64.4058 97.5843 65.0021 99.0114 65.1236ZM103.572 45.955C103.423 47.3517 103.367 48.5442 105.09 48.3116C105.754 48.2216 106.999 48.5619 106.811 47.4988C106.571 46.1255 105.579 44.7731 104.241 44.4528C103.059 44.1718 103.788 45.5657 103.572 45.955ZM102.333 45.955C102.042 45.6037 102.967 44.5507 101.762 44.3028C101.106 44.1666 98.9419 46.546 98.9993 47.3853C99.0797 48.5647 100.067 48.1361 100.705 48.2421C102.321 48.5054 102.468 47.4417 102.333 45.955ZM103.535 64.176C103.906 64.4935 102.834 65.6342 104.167 65.7711C104.79 65.8354 107.014 63.363 106.959 62.6424C106.864 61.4608 105.882 61.894 105.241 61.7754C103.452 61.4506 103.43 62.676 103.535 64.176ZM102.438 63.9484C102.438 61.7518 102.39 61.6487 100.698 61.7058C100.061 61.7263 99.0845 61.2872 98.9517 62.4903C98.8637 63.309 101.128 65.8794 101.812 65.7323C102.969 65.4894 102.165 64.462 102.438 63.9484ZM111.62 54.3312C114.077 54.3223 114.192 54.1864 113.544 51.9437C113.311 51.1411 112.97 50.3662 112.637 49.5973C112.009 48.1492 110.866 48.916 109.96 49.0579C108.963 49.2175 109.284 50.0824 109.386 50.7613C109.471 51.316 109.656 51.8734 109.636 52.4237C109.582 54.0319 110.315 54.602 111.62 54.3312ZM94.0699 54.3107C94.6785 54.1688 95.7156 54.7101 95.9663 53.7216C96.3191 52.3206 96.6621 50.8725 96.5024 49.396C96.4844 49.246 96.0685 49.1172 95.8208 49.0293C93.8718 48.327 93.2683 48.8202 92.3518 51.8325C91.668 54.0862 91.808 54.2976 94.0699 54.3107ZM111.761 55.5443C111.044 55.57 110.09 55.2736 109.889 56.303C109.619 57.7278 109.056 59.1273 109.284 60.6142C109.311 60.7817 109.842 60.9055 110.155 60.9881C112.682 61.662 112.853 59.4728 113.428 57.9735C114.238 55.8619 114.007 55.6219 111.761 55.5443ZM93.972 55.6577C91.8633 55.6612 91.6403 55.9467 92.2765 57.9859C92.545 58.8427 92.885 59.6922 93.311 60.4744C93.7647 61.3027 96.4341 61.4344 96.6422 60.6244C97.0157 59.1816 96.2616 57.7878 95.9663 56.3887C95.7257 55.245 94.6188 55.8253 93.972 55.6577ZM99.2947 54.0985C101.679 54.6458 102.48 54.0707 102.508 51.8867C102.538 49.6228 101.529 49.3418 99.7733 49.4297C97.9244 49.5225 97.4736 50.1416 97.3536 52.8802C97.2536 55.1521 98.9312 53.9237 99.2947 54.0985ZM106.248 54.3496C106.992 53.9902 108.657 55.2707 108.627 53.0303C108.595 50.4927 107.943 49.4011 106.333 49.4084C104.895 49.4138 103.265 48.9724 103.427 51.5743C103.598 54.3079 103.435 54.3181 106.248 54.3496ZM99.49 55.6453C99.0243 56.1949 97.3508 54.6794 97.3558 56.8636C97.3612 59.3878 98.0026 60.6397 99.5099 60.5828C100.872 60.5285 102.641 61.1301 102.47 58.4586C102.293 55.6893 102.446 55.6781 99.49 55.6453ZM103.588 57.9604C102.941 60.3763 104.274 60.6683 106.133 60.5592C107.81 60.4613 108.592 59.3747 108.62 56.8993C108.64 54.9737 107.217 55.5779 106.28 55.5238C104.675 55.4257 102.859 55.2576 103.588 57.9604ZM102.814 67.3354C96.1686 67.3609 90.7763 61.7235 90.7891 54.7622C90.8017 47.9766 96.1361 42.6023 102.924 42.5351C109.569 42.4706 115.059 48.0921 115.094 54.9999C115.13 61.7702 109.614 67.3097 102.814 67.3354Z" fill="#D3A72C"/>
<path fill-rule="evenodd" clip-rule="evenodd" d="M85.0625 44.7132C86.0968 44.2098 86.6329 43.9207 87.1888 43.6807C91.1484 41.9511 91.1542 41.954 90.6827 46.3521C90.6301 46.827 90.4824 47.2944 90.3349 47.9757C88.8624 46.5819 88.3212 47.4285 87.8327 48.7997C85.5359 55.2575 87.3819 62.5699 92.5492 67.2496C97.3601 71.6068 104.572 72.4124 110.38 69.2399C110.56 69.1389 110.736 69.0284 110.926 68.9479C111.485 68.7108 112.088 67.7713 112.639 68.7291C113.258 69.8003 112.066 69.9524 111.554 70.2363C105.606 73.5378 99.6044 73.5788 93.8116 69.9753C86.6529 65.5229 83.5871 56.0162 86.6529 48.0072C87.2691 46.3938 87.399 45.3636 85.0625 44.7132Z" fill="#D3A72C"/>
<path fill-rule="evenodd" clip-rule="evenodd" d="M120.988 64.2185C119.065 65.2949 117.347 67.086 116.225 66.3813C114.932 65.5714 115.729 63.1239 115.273 61.057C117.592 62.7654 118.011 61.1754 118.447 59.5701C120.162 53.269 117.915 46.2301 112.886 42.1649C107.659 37.9394 100.856 37.4176 95.0553 40.8068C94.4639 41.153 93.8149 41.7565 93.3846 40.7577C93.0161 39.8981 93.9556 39.7847 94.3936 39.5213C100.51 35.8483 108.471 36.566 114.166 41.2612C119.603 45.7422 121.755 53.3721 119.606 60.525C119.178 61.9422 118.138 63.527 120.988 64.2185Z" fill="#D3A72C"/>
<path fill-rule="evenodd" clip-rule="evenodd" d="M20.3906 135.185V127.166H25.427V128.448H21.7234V130.969H24.6267V132.254H21.7234V135.185H20.3906Z" fill="#D3A72C"/>
<path fill-rule="evenodd" clip-rule="evenodd" d="M28.1165 128.46V130.694H29.2383C30.9284 130.694 30.9176 128.46 29.2383 128.46H28.1165ZM29.2383 127.166C32.3071 127.166 32.6964 130.853 30.3953 131.781L32.6526 135.185H31.0629L28.9605 131.989H28.1165V135.185H26.7832V129.56L28.0947 128.46H26.7832V127.166H29.2383Z" fill="#D3A72C"/>
<path fill-rule="evenodd" clip-rule="evenodd" d="M40.9006 131.174C40.9006 133.969 38.9001 135.367 36.897 135.367C34.8859 135.367 32.8848 133.969 32.8848 131.174C32.8848 130.569 32.9741 130.031 33.1415 129.56H34.6311C34.3526 129.984 34.1857 130.522 34.1857 131.174C34.1857 133.054 35.5422 133.982 36.897 133.982C38.2432 133.982 39.6002 133.054 39.6002 131.174C39.6002 129.296 38.2432 128.368 36.897 128.368C36.0752 128.368 35.2529 128.713 34.7312 129.399L33.8088 128.392C34.5749 127.451 35.7313 126.983 36.897 126.983C38.9001 126.983 40.9006 128.38 40.9006 131.174Z" fill="#D3A72C"/>
<path fill-rule="evenodd" clip-rule="evenodd" d="M42.8431 129.88H43.6762L42.2862 127.166H43.6762L46.6227 132.928L49.5672 127.166H50.0127L51.1789 135.185H49.8674L49.178 130.604L46.8444 135.185H46.4006L44.0655 130.636L43.3762 135.185H42.0645L42.8431 129.88Z" fill="#D3A72C"/>
<path fill-rule="evenodd" clip-rule="evenodd" d="M55.4492 135.185V127.166H60.4859V128.448H56.7825V130.969H59.6857V132.254H56.7825V135.185H55.4492Z" fill="#D3A72C"/>
<path fill-rule="evenodd" clip-rule="evenodd" d="M65.363 132.779L64.0956 129.938L62.8279 132.779H65.363ZM62.8624 129.559H63.9282L62.8624 127.165H64.2627L67.8202 135.184H66.4417L65.9415 134.064H62.251L61.7509 135.184H60.3613L62.8624 129.559Z" fill="#D3A72C"/>
<path fill-rule="evenodd" clip-rule="evenodd" d="M70.3977 128.46V130.694H71.5195C73.2096 130.694 73.1983 128.46 71.5195 128.46H70.3977ZM71.5195 127.166C74.5884 127.166 74.9777 130.853 72.6766 131.781L74.9338 135.185H73.3442L71.2418 131.989H70.3977V135.185H69.0645V129.56L70.3754 128.46H69.0645V127.166H71.5195Z" fill="#D3A72C"/>
<path fill-rule="evenodd" clip-rule="evenodd" d="M76.8449 129.88H77.6774L76.2881 127.166H77.6774L80.6241 132.928L83.5691 127.166H84.0145L85.1804 135.185H83.8692L83.1798 130.604L80.8464 135.185H80.4024L78.0668 130.636L77.3774 135.185H76.0664L76.8449 129.88Z" fill="#D3A72C"/>
<path fill-rule="evenodd" clip-rule="evenodd" d="M86.8699 128.425C87.2137 127.36 88.2815 126.832 89.427 126.832C90.4387 126.832 91.4496 127.281 92.1611 128.012L91.2826 129.021C90.7712 128.494 90.104 128.185 89.3817 128.185C88.7161 128.185 88.0706 128.425 88.0706 129.229C88.0706 129.308 88.0813 129.377 88.116 129.445L86.8699 128.425ZM92.3958 133.228C92.3958 134.785 90.9042 135.516 89.5709 135.516C88.4252 135.516 87.2482 135.094 86.5352 134.12L87.5704 133.283C88.0598 133.958 88.849 134.166 89.6148 134.166C90.204 134.166 91.0826 133.936 91.0826 133.18C91.0826 131.715 87.1812 131.793 86.7919 129.559H88.1706C88.7924 130.59 92.3958 130.659 92.3958 133.228Z" fill="#D3A72C"/>
<path fill-rule="evenodd" clip-rule="evenodd" d="M96.1094 128.449V127.164H102.513V128.449H99.9675V135.185H98.632V129.56L99.9675 128.449H96.1094Z" fill="#D3A72C"/>
<path fill-rule="evenodd" clip-rule="evenodd" d="M110.871 131.174C110.871 133.969 108.871 135.367 106.868 135.367C104.856 135.367 102.855 133.969 102.855 131.174C102.855 130.569 102.945 130.031 103.112 129.56H104.602C104.323 129.984 104.156 130.522 104.156 131.174C104.156 133.054 105.513 133.982 106.868 133.982C108.214 133.982 109.571 133.054 109.571 131.174C109.571 129.296 108.214 128.368 106.868 128.368C106.046 128.368 105.224 128.713 104.702 129.399L103.779 128.392C104.546 127.451 105.702 126.983 106.868 126.983C108.871 126.983 110.871 128.38 110.871 131.174Z" fill="#D3A72C"/>
<path fill-rule="evenodd" clip-rule="evenodd" d="M114.629 128.449V127.164H121.031V128.449H118.487V135.185H117.152V129.56L118.487 128.449H114.629Z" fill="#D3A72C"/>
<path fill-rule="evenodd" clip-rule="evenodd" d="M122.273 127.165H123.607V130.534H127.321V127.165H128.654V135.184H127.321V131.816H123.607V135.184H122.273V132.939L123.607 131.816H122.273V127.165Z" fill="#D3A72C"/>
<path fill-rule="evenodd" clip-rule="evenodd" d="M130.344 127.165H135.38V128.45H131.677V130.534H134.58V131.816H131.677V133.902H135.38V135.184H130.344V129.559L131.677 128.45H130.344V127.165Z" fill="#D3A72C"/>
<path fill-rule="evenodd" clip-rule="evenodd" d="M139.094 127.165H140.505L142.529 132.172L144.319 128.037H144.552L146.331 132.172L148.364 127.165H149.765L146.486 135.301H146.253L144.43 130.98L142.606 135.301H142.373L139.094 127.165Z" fill="#D3A72C"/>
<path fill-rule="evenodd" clip-rule="evenodd" d="M158.188 131.174C158.188 133.969 156.187 135.367 154.186 135.367C152.173 135.367 150.172 133.969 150.172 131.174C150.172 130.569 150.261 130.031 150.428 129.56H151.918C151.64 129.984 151.474 130.522 151.474 131.174C151.474 133.054 152.829 133.982 154.186 133.982C155.53 133.982 156.887 133.054 156.887 131.174C156.887 129.296 155.53 128.368 154.186 128.368C153.364 128.368 152.54 128.713 152.018 129.399L151.096 128.392C151.861 127.451 153.018 126.983 154.186 126.983C156.187 126.983 158.188 128.38 158.188 131.174Z" fill="#D3A72C"/>
<path fill-rule="evenodd" clip-rule="evenodd" d="M161.032 128.46V130.694H162.154C163.844 130.694 163.833 128.46 162.154 128.46H161.032ZM162.154 127.166C165.223 127.166 165.612 130.853 163.311 131.781L165.569 135.185H163.979L161.876 131.989H161.032V135.185H159.699V129.56L161.01 128.46H159.699V127.166H162.154Z" fill="#D3A72C"/>
<path fill-rule="evenodd" clip-rule="evenodd" d="M166.812 133.902H171.849V135.186H166.812V127.165H168.146V132.676L166.812 133.902Z" fill="#D3A72C"/>
<path fill-rule="evenodd" clip-rule="evenodd" d="M174.423 128.449V133.89H175.335C178.848 133.89 178.858 128.449 175.335 128.449H174.423ZM174.423 128.449H173.09V127.164H175.391C178.048 127.187 179.371 129.183 179.371 131.174C179.371 133.168 178.048 135.161 175.391 135.185H173.09V129.56L174.423 128.449Z" fill="#D3A72C"/>
<path fill-rule="evenodd" clip-rule="evenodd" d="M42.5152 61.4358C38.8953 56.4965 34.2772 53.3584 28.5769 51.8293C36.0018 55.1114 40.3852 61.5708 44.594 68.1238C44.9302 68.0451 44.9942 67.8665 44.9992 67.6493C45.0849 63.3007 45.5159 58.9592 45.2884 54.6049C45.2503 53.8424 45.1524 53.0699 44.9704 52.3334C44.2882 49.5594 44.1481 49.4186 41.3746 49.3043C38.6008 49.1917 36.8583 47.6566 35.8105 45.1614C35.3011 43.9453 34.9521 42.6573 34.5031 41.413C34.3484 40.9836 34.3809 40.7493 34.8701 40.6684C38.721 40.0202 44.3919 42.6499 44.2502 47.6417C42.6787 45.4149 41.0178 43.4632 38.4009 42.7024C41.6438 44.6104 43.2622 47.9281 45.2633 51.2346C47.0491 46.7795 48.499 42.4421 52.4478 39.3418C50.1648 40.0145 48.9429 41.3492 46.082 45.9994C45.6195 44.0127 46.2671 41.754 47.8262 40.0745C49.9144 37.8233 52.5314 36.7419 55.4982 36.4231C56.4004 36.326 56.7818 36.4625 56.4509 37.548C56.0199 38.9555 55.8018 40.4305 55.4232 41.8592C54.3467 45.9155 52.0601 47.9022 48.004 48.1514C46.9368 48.2172 46.644 48.6444 46.3526 49.6173C45.3524 52.978 46.3454 56.2116 46.7563 59.4842C47.0276 61.6531 47.342 63.8178 47.688 66.3581C52.8609 58.0056 58.6575 50.7926 67.7061 47.0154C65.9164 46.7045 61.3185 48.7231 57.6899 51.2932C54.6324 53.4577 52.2277 56.2957 49.9396 59.2801C50.3071 53.6135 52.7753 49.1428 57.2639 45.9696C61.7093 42.8242 66.7914 42.0574 72.0586 42.4027C73.6337 42.5059 75.1928 42.8991 76.7607 43.1467C77.3753 43.2423 77.7083 43.381 77.2171 44.0973C75.3728 46.7942 74.2977 49.9004 72.9192 52.8451C70.6944 57.6022 67.4772 61.2594 62.3934 62.7981C59.1994 63.7657 55.9838 63.6382 52.8551 62.6069C51.591 62.193 51.1162 62.5675 50.5727 63.6419C48.7863 67.1716 47.9809 70.78 48.3242 74.851C48.912 81.7791 49.0502 88.7481 49.3919 95.7001C49.6632 101.221 49.9757 106.737 50.2268 112.257C50.2633 113.076 50.5578 113.309 51.3018 113.294C54.1318 113.243 56.966 113.295 59.7939 113.191C62.2605 113.099 63.6757 111.673 63.8248 109.354C64.0104 106.484 62.9116 104.87 60.2869 104.422C58.1245 104.051 55.9234 104.233 53.741 104.268C52.7804 104.283 52.404 104.027 52.4588 102.992C52.5335 101.562 52.5407 100.124 52.4678 98.6937C52.4167 97.6888 52.8386 97.5034 53.6934 97.5259C55.3835 97.571 57.0745 97.5709 58.761 97.4922C61.1708 97.3818 62.4278 96.0826 62.4624 93.7943C62.4985 91.4473 61.2089 89.9606 58.8352 89.8129C56.9038 89.6927 54.9633 89.7076 53.0262 89.7396C52.1239 89.7522 51.6512 89.5898 51.7109 88.4856C51.7966 86.9038 51.729 85.312 51.6965 83.7265C51.6839 83.1473 51.7146 82.7349 52.4529 82.7557C56.2671 82.8551 60.1124 82.4013 63.8771 83.4002C69.0918 84.7838 71.7294 89.3813 70.3868 94.6767C69.765 97.1268 68.3153 98.8136 66.0798 99.8259C65.7379 99.9816 65.2614 99.9215 65.0851 100.4C69.943 101.691 72.1152 104.282 72.2693 108.97C72.4348 113.991 70.1488 117.451 65.6234 119.061C63.5318 119.806 61.3652 120.074 59.1735 120.087C54.2099 120.113 49.2444 120.076 44.2809 120.105C43.4426 120.11 43.1497 119.84 43.1878 118.958C43.4751 112.208 43.7498 105.457 43.9864 98.7057C44.2751 90.4189 44.5917 82.1323 44.7574 73.8412C44.8228 70.6139 43.013 67.9296 41.7437 65.1163C41.458 64.4844 41.0105 64.6157 40.4904 64.7713C39.2024 65.1592 37.8876 65.4106 36.5399 65.4648C31.2598 65.682 27.3981 63.2395 24.6588 58.7185C23.1256 56.1897 22.3182 53.3014 20.956 50.6882C19.781 48.4392 19.7536 48.3923 22.2396 48.1596C26.072 47.7983 29.8863 47.8339 33.5422 49.3424C38.4404 51.3652 41.4415 55.0224 42.4474 60.3793C42.513 60.7242 42.495 61.083 42.5152 61.4358Z" fill="#D3A72C"/>
<path fill-rule="evenodd" clip-rule="evenodd" d="M40.4838 108.931C40.4838 111.697 40.4748 114.457 40.491 117.222C40.4946 117.927 40.4529 118.471 39.6311 118.748C33.7452 120.739 27.7773 121.494 21.7841 119.517C14.6037 117.148 10.9621 111.679 10.1655 104.174C9.51225 98.0226 10.7145 92.3352 15.1765 87.7974C18.4304 84.4852 22.4972 82.9518 26.9482 82.5022C30.515 82.142 34.0855 82.3481 37.6248 83.0346C38.5359 83.2105 38.9109 83.5308 38.7763 84.534C38.5576 86.1535 38.4339 87.7879 38.307 89.4185C38.2467 90.2151 37.9885 90.3856 37.1775 90.2396C33.687 89.6115 30.169 89.4171 26.6605 90.0971C21.9898 91.001 18.9557 94.4291 18.4066 99.3046C18.1411 101.67 18.2338 104.008 18.8887 106.296C20.0781 110.439 22.8756 112.613 26.9426 113.206C28.5285 113.434 30.1094 113.381 31.6952 113.2C32.3226 113.131 32.7047 112.972 32.6882 112.199C32.6537 110.563 32.6609 108.925 32.7103 107.288C32.7321 106.51 32.3882 106.327 31.7242 106.343C30.4841 106.375 29.2416 106.329 28.001 106.368C27.2917 106.391 27.0389 106.113 27.0571 105.382C27.0973 103.695 27.0987 102.006 27.066 100.317C27.0517 99.6011 27.2678 99.3253 27.9917 99.3291C31.8641 99.3557 35.7382 99.3652 39.6108 99.3255C40.5203 99.3165 40.5181 99.8244 40.5145 100.488C40.502 103.303 40.5091 106.117 40.5091 108.932L40.4838 108.931Z" fill="#D3A72C"/>
<path fill-rule="evenodd" clip-rule="evenodd" d="M161.368 143.935C159.795 146.563 157.958 148.559 155.837 150.214C153.889 151.734 152.287 153.44 151.314 155.779C150.843 156.915 150.07 157.914 149.068 158.602C144.873 161.483 141.032 164.865 136.208 166.821C132.371 168.377 128.642 169.982 124.531 170.744C120.686 171.459 117.048 173.118 113.354 174.465C111.46 175.155 109.54 175.573 107.525 175.503C104.287 175.391 101.08 175.697 97.8904 176.28C95.2238 176.767 92.6499 176.154 90.1216 175.356C84.9487 173.716 79.8543 171.848 74.8908 169.618C72.668 168.621 70.3742 168.045 67.9515 168.16C63.8104 168.353 60.6509 166.574 58.3138 163.14C56.4056 160.336 53.9627 158.111 51.3456 156.051C47.4623 152.99 43.8012 149.699 41.3166 145.254C41.1237 144.909 40.9433 144.555 40.6035 143.914H44.736C45.3454 143.914 45.536 144.463 45.8346 144.838C57.0675 158.99 71.5277 167.608 88.9306 170.559C106.611 173.558 123.194 169.969 138.407 160.077C144.758 155.95 150.37 150.941 155.121 144.943C155.726 144.182 156.345 143.876 157.267 143.919C158.535 143.979 159.806 143.935 161.368 143.935Z" fill="#D3A72C"/>
<path fill-rule="evenodd" clip-rule="evenodd" d="M166.701 60.0962C166.559 60.1733 166.521 60.2072 166.475 60.2148C164.242 60.6307 162.836 59.9895 161.453 57.7892C149.571 38.8911 132.856 27.3649 111.151 24.1487C93.5609 21.5431 77.2112 25.4701 62.249 35.4008C61.8437 35.6707 61.4323 35.9332 60.9925 36.2201C60.5631 33.3557 60.5449 33.3031 62.9547 32.3812C64.9429 31.622 66.5 30.394 67.6477 28.5549C68.237 27.6103 68.917 26.7204 69.6208 25.8638C70.3121 25.0201 71.2088 24.3282 72.3091 24.4313C77.1839 24.8814 81.7236 23.3086 86.3508 22.1636C89.6794 21.3389 93.0061 20.5233 96.2691 19.4511C98.0753 18.8587 99.8525 18.8587 101.684 19.3986C106.998 20.9616 112.422 21.4421 117.903 20.7296C121.207 20.2985 124.037 20.8384 126.424 23.5057C127.901 25.1588 129.953 26.1352 131.872 27.2172C135.747 29.4026 139.62 31.59 143.5 33.7681C144.982 34.6006 146.492 35.3859 148.118 35.8827C150.015 36.4598 151.435 37.6446 152.539 39.3146C154.989 43.0201 157.934 46.2686 161.284 49.1161C163.234 50.7728 164.453 52.8759 165.184 55.3334C165.66 56.9379 166.197 58.524 166.701 60.0962Z" fill="#D3A72C"/>
<path fill-rule="evenodd" clip-rule="evenodd" d="M90.1775 167.096C91.7434 168.075 95.7412 168.569 97.3729 168.067C94.761 167.713 92.4692 167.405 90.1775 167.096ZM47.627 144.01C49.4985 143.519 50.8356 144.528 51.434 145.435C52.887 147.639 54.6879 149.409 56.6121 151.082C65.0717 158.434 74.3878 164.11 85.361 166.489C85.6032 166.541 85.8451 166.601 86.089 166.639C86.1798 166.652 86.2777 166.601 86.4525 166.345C85.0955 165.919 83.7317 165.514 82.3835 165.06C80.9738 164.587 79.5791 164.063 78.1964 163.462C92.5801 168.408 106.996 168.701 121.531 164.119C120.12 164.663 118.71 165.209 116.993 165.872C118.055 166.107 118.67 165.741 119.285 165.511C125.058 163.351 130.958 161.501 136.126 157.906C138.364 156.348 148.488 147.034 150.216 144.839C151.024 143.815 151.393 143.72 153.572 144.119C139.454 160.166 122.39 169.289 101.338 169.429C79.7608 169.574 62.0287 160.815 47.627 144.01Z" fill="#D3A72C"/>
<path fill-rule="evenodd" clip-rule="evenodd" d="M116.673 29.3679C113.193 28.7978 109.709 28.275 106.238 27.6491C99.0067 26.3483 91.8711 26.8765 84.7977 28.7473C84.6215 28.794 84.4704 28.946 84.3683 29.3212C86.3419 28.9238 88.3006 28.4403 90.2888 28.155C92.3495 27.8605 94.432 27.6602 96.5294 27.8925C91.6149 28.3521 86.8112 29.4992 81.9635 30.3068C76.5835 31.2047 71.9073 33.353 67.3747 36.176C67.2675 36.2434 67.204 36.3859 67.1257 36.4852C67.4004 36.8878 67.6624 36.2865 67.9295 36.5431C65.8578 38.8055 63.033 39.1036 60.2793 39.5425C74.3047 28.8526 90.0721 24.1193 107.441 25.7893C130.622 28.0184 148.117 39.8927 160.686 60.0207C158.418 60.5006 157.934 60.2493 157.145 58.3614C156.89 57.7525 156.513 57.1786 156.359 56.5475C155.286 52.1479 152.541 49.2441 148.71 47.2723C148.314 47.0682 147.855 46.8638 147.603 46.5205C145.371 43.4824 142.226 41.6753 139.302 39.4989C137.705 38.3108 136.393 36.0968 134.469 35.9863C132.517 35.8742 131.253 34.8188 129.751 34.0745C127.556 32.9874 125.36 31.8456 123.028 31.1974C120.885 30.5996 118.752 29.9843 116.622 29.3285C118.196 29.2383 119.645 30.0798 121.222 30.0161C118.272 28.886 115.266 28.0502 111.841 27.658C112.732 28.4359 113.559 28.4158 114.294 28.6406C115.087 28.8822 115.962 28.8372 116.673 29.3679Z" fill="#D3A72C"/>
<path fill-rule="evenodd" clip-rule="evenodd" d="M97.3617 143.737C96.0902 144.79 94.8353 145.57 94.1351 146.881C93.6969 147.701 92.9276 148.601 93.6186 149.544C94.3373 150.521 95.4009 150.142 96.3671 149.836C97.4731 149.486 98.4151 148.811 99.3791 148.195C100.034 147.774 100.507 147.827 101.087 148.352C103.248 150.309 105.445 152.223 107.633 154.148C108.248 154.685 108.764 155.259 108.041 156.059C107.413 156.753 106.822 156.434 106.232 155.915C105.365 155.152 104.468 154.423 103.571 153.698C103.312 153.488 102.97 153.118 102.673 153.463C102.286 153.919 102.798 154.176 103.071 154.415C103.937 155.181 104.821 155.924 105.705 156.667C106.227 157.107 106.524 157.589 105.991 158.217C105.505 158.793 104.939 158.738 104.41 158.305C103.519 157.574 102.668 156.788 101.771 156.063C101.454 155.806 101.069 155.171 100.674 155.645C100.221 156.193 100.918 156.513 101.252 156.817C101.847 157.356 102.493 157.835 103.119 158.339C103.592 158.719 103.919 159.163 103.464 159.76C103.064 160.282 102.486 160.316 101.995 159.979C100.812 159.171 99.3065 158.346 98.6423 157.394C97.8947 156.324 96.8033 155.452 96.2485 154.198C95.7814 153.147 95.0483 152.824 93.7623 152.86C92.4235 152.899 91.0252 152.309 89.6315 152.08C87.8672 151.79 87.6347 149.767 88.6694 148.055C88.9041 147.666 89.1478 147.282 89.3846 146.89C90.3446 145.3 90.9959 143.418 93.548 144.106C94.6373 144.4 95.8649 143.43 97.3617 143.737Z" fill="#D3A72C"/>
<path fill-rule="evenodd" clip-rule="evenodd" d="M101.265 143.569C101.561 143.625 102.047 143.715 102.532 143.812C103.551 144.017 104.636 144.56 105.577 144.365C108.056 143.848 108.896 145.524 109.92 147.218C111.457 149.767 111.441 149.681 109.542 151.867C108.513 153.052 107.783 153.066 106.681 151.976C105.111 150.421 103.313 149.115 101.745 147.559C100.788 146.609 100.041 146.682 99.029 147.362C97.9613 148.086 96.8955 148.862 95.6041 149.154C95.2297 149.241 94.7909 149.501 94.4981 149.11C94.2237 148.748 94.5071 148.326 94.6476 147.962C95.388 146.035 99.0657 143.53 101.265 143.569Z" fill="#D3A72C"/>
<path fill-rule="evenodd" clip-rule="evenodd" d="M83.2637 148.637C83.3946 148.363 83.4478 148.217 83.5276 148.09C84.9027 145.901 86.2978 143.726 87.6492 141.52C88.0075 140.935 88.3127 140.982 88.8407 141.276C91.1924 142.584 91.2015 142.568 89.7224 144.905C88.7206 146.489 87.6818 148.052 86.7362 149.674C86.2432 150.519 85.7901 150.744 85.0192 150.05C84.4516 149.539 83.653 149.301 83.2637 148.637Z" fill="#D3A72C"/>
<path fill-rule="evenodd" clip-rule="evenodd" d="M110.789 141.134C111.264 141.083 111.349 141.439 111.502 141.673C112.855 143.753 114.185 145.85 115.551 147.919C115.906 148.456 115.9 148.819 115.338 149.162C114.912 149.425 114.48 149.698 114.125 150.047C113.374 150.785 112.937 150.364 112.504 149.683C111.28 147.758 110.078 145.82 108.796 143.938C108.212 143.079 108.406 142.615 109.23 142.172C109.798 141.867 110.311 141.458 110.789 141.134Z" fill="#D3A72C"/>
<path fill-rule="evenodd" clip-rule="evenodd" d="M37.3901 69.2088C36.3238 72.1719 35.4638 74.995 34.278 77.6661C33.7651 78.8168 32.4101 77.9025 31.1309 78.1479C32.6916 75.5651 32.6735 72.8994 32.8044 70.2623C32.8427 69.4897 33.0247 69.0568 33.965 69.1768C35.0344 69.3139 36.133 69.2088 37.3901 69.2088Z" fill="#D3A72C"/>
<path fill-rule="evenodd" clip-rule="evenodd" d="M37.0025 78.417C36.4571 78.4395 36.3168 78.1428 36.4571 77.6428C37.2408 74.8534 38.3559 72.1956 39.4907 69.5454C39.6763 69.1101 40.0325 68.9062 40.4492 69.0634C40.9679 69.2563 40.8096 69.7643 40.6822 70.1054C39.7237 72.6888 38.723 75.2546 37.7479 77.832C37.6083 78.1993 37.4355 78.4617 37.0025 78.417Z" fill="#D3A72C"/>
<path fill-rule="evenodd" clip-rule="evenodd" d="M91.2129 156.895C91.2418 156.195 93.8414 153.713 94.4761 153.862C95.2251 154.037 95.6727 154.617 95.1324 155.311C94.4307 156.216 93.5557 156.983 92.719 157.77C92.4096 158.06 91.9894 158.038 91.6074 157.819C91.2512 157.614 91.2222 157.258 91.2129 156.895Z" fill="#D3A72C"/>
<path fill-rule="evenodd" clip-rule="evenodd" d="M94.3963 159.571C94.0417 159.567 93.7163 159.524 93.5048 159.159C93.2831 158.772 93.4162 158.456 93.6746 158.199C94.3453 157.524 95.0258 156.859 95.7353 156.229C96.0585 155.94 96.4515 155.932 96.8248 156.22C97.1522 156.473 97.1866 156.809 97.1177 157.174C96.9845 157.862 95.0567 159.55 94.3963 159.571Z" fill="#D3A72C"/>
<path fill-rule="evenodd" clip-rule="evenodd" d="M66.8105 157.642C69.934 159.557 73.339 160.905 76.5093 162.73C72.8785 161.834 69.6684 160.095 66.8105 157.642Z" fill="#D3A72C"/>
<path fill-rule="evenodd" clip-rule="evenodd" d="M92.2465 153.989C91.8005 154.822 91.1586 155.502 90.2276 155.761C89.6433 155.926 89.1742 155.438 89.2835 154.925C89.4944 153.922 90.36 153.374 91.2134 153.043C91.7062 152.852 92.0424 153.429 92.2465 153.989Z" fill="#D3A72C"/>
<path fill-rule="evenodd" clip-rule="evenodd" d="M136.871 156.635C134.446 158.479 131.798 159.889 128.875 161.014C131.319 158.951 134.15 157.902 136.871 156.635Z" fill="#D3A72C"/>
<path fill-rule="evenodd" clip-rule="evenodd" d="M96.5594 161.158C96.07 161.086 95.6701 160.876 95.7664 160.4C95.9649 159.445 96.6305 158.819 97.5091 158.558C98.0689 158.393 98.2892 158.891 98.2655 159.394C98.2148 160.53 97.2781 160.759 96.5594 161.158Z" fill="#D3A72C"/>
<path fill-rule="evenodd" clip-rule="evenodd" d="M100.98 160.495C100.902 161.001 100.6 161.314 100.184 161.258C99.6417 161.187 99.0775 160.896 99.0921 160.244C99.1011 159.899 99.1122 159.16 99.7597 159.331C100.311 159.475 100.791 159.89 100.98 160.495Z" fill="#D3A72C"/>
<path fill-rule="evenodd" clip-rule="evenodd" d="M69.1738 35.6729C70.2904 35.0974 71.4088 34.522 72.5276 33.9465C72.5565 34.0103 72.5874 34.0741 72.6183 34.1378C71.5197 34.7133 70.423 35.2866 69.3242 35.8621C69.2737 35.7988 69.2243 35.7367 69.1738 35.6729Z" fill="#D3A72C"/>
<path fill-rule="evenodd" clip-rule="evenodd" d="M101.755 98.0627L98.4771 85.8282H90.0608L72.0762 117.784H80.4925L96.3508 109.567L105.299 97.515L86.4284 107.193L92.7186 96.0543L94.2245 101.806L101.755 98.0627ZM106.893 117.784L102.996 102.947L96.6169 111.439L98.4771 117.784H106.893ZM138.345 106.051C139.009 101.121 136.263 97.8344 131.479 97.8344H120.05L122.752 104.226H130.637L129.618 111.393H120.449C117.879 111.393 116.506 109.43 116.905 106.463L118.145 97.1501C118.544 94.1826 120.537 92.2192 123.106 92.2192H132.808L137.193 85.8282H119.695C114.911 85.8282 111.279 89.1152 110.614 94.0455L108.488 109.567C107.824 114.497 110.57 117.784 115.354 117.784H128.776C133.56 117.784 137.193 114.497 137.857 109.567L138.345 106.051ZM140.338 117.784H148.312L149.862 106.234H158.456C165.765 106.234 171.302 101.395 171.302 93.7261C171.302 88.7501 168.378 85.8282 162.753 85.8282H144.679L140.338 117.784ZM150.748 99.8434L151.767 92.2192H160.493C163.063 92.2192 163.373 94.3653 163.151 95.9172C162.886 97.9715 161.645 99.8434 158.987 99.8434H150.748ZM153.982 107.376L160.671 117.784H169.929L163.151 107.376H153.982ZM183.351 87.9738L183.617 85.8282H175.643L174.447 94.5933L183.351 87.9738ZM171.302 117.784H179.276L183.041 89.9828L174.181 96.6023L171.302 117.784Z" fill="#D3A72C"/>
<path fill-rule="evenodd" clip-rule="evenodd" d="M121.744 78.3277L121.969 76.6763H123.471L123.42 77.079L121.744 78.3277ZM121.694 78.7064L123.362 77.4599L122.653 82.6967H121.15L121.694 78.7064Z" fill="#D3A72C"/>
<path fill-rule="evenodd" clip-rule="evenodd" d="M124.321 76.6763H125.823L127.493 79.5742L129.946 76.6763H131.449L130.63 82.6973H129.13L129.672 78.7064L127.218 81.6044L125.548 78.7064L125.004 82.6973H123.502L124.321 76.6763Z" fill="#D3A72C"/>
<path fill-rule="evenodd" clip-rule="evenodd" d="M135.047 79.7467C135.582 79.7467 135.847 79.2823 135.916 78.7834C135.965 78.405 135.916 77.88 135.398 77.88H133.628L133.379 79.7467H135.047ZM132.293 76.6766H135.791C137.033 76.6766 137.593 77.4487 137.417 78.75C137.226 80.116 136.207 80.9501 134.905 80.9501H133.212L132.977 82.6972H131.475L132.293 76.6766Z" fill="#D3A72C"/>
<path fill-rule="evenodd" clip-rule="evenodd" d="M138.062 76.6763H142.653L142.495 77.8797H139.398L139.239 79.0848H142.077L140.551 80.2882H139.072L138.914 81.4939H142.077L141.918 82.6973H137.244L138.062 76.6763Z" fill="#D3A72C"/>
<path fill-rule="evenodd" clip-rule="evenodd" d="M146.561 79.9355L148.121 82.6967H146.31L145.484 81.2255L146.561 79.9355ZM142.096 82.6967L144.616 79.6863L142.914 76.6763H144.726L145.693 78.3967L147.128 76.6763H148.94L143.907 82.6967H142.096Z" fill="#D3A72C"/>
<path fill-rule="evenodd" clip-rule="evenodd" d="M151.967 76.6763H153.47L152.818 81.4939H155.648L155.49 82.6973H151.148L151.967 76.6763Z" fill="#D3A72C"/>
<path fill-rule="evenodd" clip-rule="evenodd" d="M156.671 78.3277L156.897 76.6763H158.399L158.35 77.081L156.671 78.3277ZM156.622 78.7064L158.291 77.4599L157.58 82.6989H156.078L156.622 78.7064Z" fill="#D3A72C"/>
<path fill-rule="evenodd" clip-rule="evenodd" d="M159.254 76.6763H160.756L162.426 79.5742L164.88 76.6763H166.382L165.563 82.6973H164.061L164.603 78.7064L162.149 81.6044L160.482 78.7064L159.938 82.6973H158.436L159.254 76.6763Z" fill="#D3A72C"/>
<path fill-rule="evenodd" clip-rule="evenodd" d="M166.999 78.3277L167.224 76.6763H168.727L168.676 77.081L166.999 78.3277ZM166.95 78.7064L168.618 77.4599L167.909 82.6989H166.406L166.95 78.7064Z" fill="#D3A72C"/>
<path fill-rule="evenodd" clip-rule="evenodd" d="M170.957 77.8805H169.99L169.162 76.6755H174.588L173.762 77.8805H172.46L171.809 82.6982H170.306L170.957 77.8805Z" fill="#D3A72C"/>
<path fill-rule="evenodd" clip-rule="evenodd" d="M175.013 76.6763H179.605L179.447 77.8818H176.349L176.191 79.0848H179.03L177.502 80.2882H176.023L175.865 81.4939H179.03L178.87 82.6973H174.195L175.013 76.6763Z" fill="#D3A72C"/>
<path fill-rule="evenodd" clip-rule="evenodd" d="M183.219 81.4934C183.703 81.4934 184.086 81.124 184.163 80.564L184.395 78.8095C184.47 78.2506 184.205 77.8812 183.719 77.8812H181.617L181.132 81.4934H183.219ZM180.281 76.6763H184.688C185.589 76.6763 186.105 77.2968 185.981 78.2246L185.58 81.1484C185.454 82.0784 184.772 82.6462 183.87 82.6989H179.463L180.281 76.6763Z" fill="#D3A72C"/>
</svg>
